<svg width="167" height="53" viewBox="0 0 167 53" fill="none" xmlns="http://www.w3.org/2000/svg">
<g clip-path="url(#clip0_2_524)">
<path d="M88.0129 13.1471C88.0129 15.0328 86.4999 16.5518 84.6217 16.5518C82.7436 16.5518 81.2306 15.0328 81.2306 13.1471C81.2306 11.2615 82.6914 9.7425 84.6217 9.7425C86.5521 9.79488 88.0129 11.3139 88.0129 13.1471ZM74.031 20.0088C74.031 20.3231 74.031 20.8469 74.031 20.8469C74.031 20.8469 72.4137 18.7517 68.9704 18.7517C63.2837 18.7517 58.8492 23.0992 58.8492 29.1227C58.8492 35.094 63.2315 39.4938 68.9704 39.4938C72.4658 39.4938 74.031 37.3463 74.031 37.3463V38.2367C74.031 38.6557 74.344 38.97 74.7614 38.97H78.9872V19.2755C78.9872 19.2755 75.1266 19.2755 74.7614 19.2755C74.344 19.2755 74.031 19.6421 74.031 20.0088ZM74.031 32.6321C73.2484 33.7845 71.6833 34.7797 69.8051 34.7797C66.4662 34.7797 63.9098 32.6845 63.9098 29.1227C63.9098 25.561 66.4662 23.4658 69.8051 23.4658C71.6311 23.4658 73.3006 24.5134 74.031 25.6134V32.6321ZM82.1175 19.2755H87.126V38.97H82.1175V19.2755ZM156.931 18.7517C153.488 18.7517 151.87 20.8469 151.87 20.8469V9.79488H146.862V38.97C146.862 38.97 150.723 38.97 151.088 38.97C151.505 38.97 151.818 38.6034 151.818 38.2367V37.3463C151.818 37.3463 153.436 39.4938 156.879 39.4938C162.566 39.4938 167 35.094 167 29.1227C167 23.1515 162.566 18.7517 156.931 18.7517ZM156.096 34.7273C154.166 34.7273 152.653 33.7321 151.87 32.5798V25.561C152.653 24.5134 154.322 23.4134 156.096 23.4134C159.435 23.4134 161.992 25.5086 161.992 29.0704C161.992 32.6321 159.435 34.7273 156.096 34.7273ZM144.253 27.2895V39.0224H139.245V27.8657C139.245 24.6182 138.202 23.3087 135.384 23.3087C133.871 23.3087 132.306 24.0944 131.315 25.2467V38.97H126.307V19.2755H130.272C130.689 19.2755 131.002 19.6421 131.002 20.0088V20.8469C132.463 19.3279 134.393 18.7517 136.323 18.7517C138.515 18.7517 140.341 19.3802 141.801 20.6373C143.575 22.104 144.253 23.9896 144.253 27.2895ZM114.151 18.7517C110.707 18.7517 109.09 20.8469 109.09 20.8469V9.79488H104.082V38.97C104.082 38.97 107.942 38.97 108.307 38.97C108.725 38.97 109.038 38.6034 109.038 38.2367V37.3463C109.038 37.3463 110.655 39.4938 114.098 39.4938C119.785 39.4938 124.22 35.094 124.22 29.1227C124.272 23.1515 119.837 18.7517 114.151 18.7517ZM113.316 34.7273C111.386 34.7273 109.873 33.7321 109.09 32.5798V25.561C109.873 24.5134 111.542 23.4134 113.316 23.4134C116.655 23.4134 119.211 25.5086 119.211 29.0704C119.211 32.6321 116.655 34.7273 113.316 34.7273ZM99.7514 18.7517C101.264 18.7517 102.047 19.0136 102.047 19.0136V23.6753C102.047 23.6753 97.8732 22.2611 95.2647 25.2467V39.0224H90.2562V19.2755C90.2562 19.2755 94.1169 19.2755 94.4821 19.2755C94.8995 19.2755 95.2125 19.6421 95.2125 20.0088V20.8469C96.1516 19.7469 98.1862 18.7517 99.7514 18.7517ZM47.7367 37.1891C47.4758 36.5606 47.215 35.8796 46.9541 35.3035C46.5368 34.3607 46.1194 33.4702 45.7542 32.6321L45.702 32.5798C42.1022 24.7229 38.2415 16.7613 34.1722 8.90444L34.0157 8.59016C33.5983 7.80448 33.1809 6.96641 32.7636 6.12835C32.2419 5.18553 31.7201 4.19032 30.8854 3.2475C29.2159 1.15234 26.8161 0 24.2597 0C21.6511 0 19.3034 1.15234 17.5818 3.14274C16.7992 4.08557 16.2253 5.08077 15.7036 6.02359C15.2862 6.86166 14.8689 7.69972 14.4515 8.48541L14.295 8.79968C10.2778 16.6565 6.36495 24.6182 2.76513 32.475L2.71296 32.5798C2.34776 33.4178 1.93039 34.3083 1.51302 35.2511C1.25217 35.8273 0.991312 36.4558 0.730456 37.1367C0.0522307 39.0748 -0.156454 40.908 0.104402 42.7937C0.678285 46.7221 3.28684 50.022 6.88666 51.4886C8.24311 52.0648 9.65173 52.3267 11.1125 52.3267C11.5299 52.3267 12.0516 52.2743 12.469 52.2219C14.1906 52.0124 15.9644 51.4362 17.6861 50.441C19.8251 49.2363 21.8598 47.5078 24.1553 44.9936C26.4509 47.5078 28.5377 49.2363 30.6246 50.441C32.3462 51.4362 34.12 52.0124 35.8417 52.2219C36.259 52.2743 36.7808 52.3267 37.1981 52.3267C38.6589 52.3267 40.1197 52.0648 41.424 51.4886C45.076 50.022 47.6324 46.6697 48.2062 42.7937C48.6236 40.9604 48.4149 39.1271 47.7367 37.1891ZM24.2075 39.9128C21.3903 36.3511 19.5643 32.9988 18.9382 30.1703C18.6773 28.9656 18.6252 27.918 18.7817 26.9752C18.886 26.1371 19.1991 25.4038 19.6164 24.7753C20.6077 23.3611 22.2772 22.4706 24.2075 22.4706C26.1378 22.4706 27.8595 23.3087 28.7986 24.7753C29.2159 25.4038 29.529 26.1371 29.6333 26.9752C29.7898 27.918 29.7376 29.018 29.4768 30.1703C28.8507 32.9464 27.0247 36.2987 24.2075 39.9128ZM45.0238 42.3746C44.6586 45.0984 42.8326 47.4554 40.2762 48.503C39.0241 49.0268 37.6677 49.1839 36.3112 49.0268C35.0069 48.8696 33.7027 48.4506 32.3462 47.6649C30.468 46.6174 28.5899 44.9936 26.3987 42.5842C29.842 38.3415 31.9288 34.4654 32.7114 31.0084C33.0766 29.3846 33.1288 27.918 32.9723 26.5562C32.7636 25.2467 32.294 24.042 31.5636 22.9944C29.9463 20.6373 27.2334 19.2755 24.2075 19.2755C21.1816 19.2755 18.4687 20.6897 16.8514 22.9944C16.121 24.042 15.6514 25.2467 15.4427 26.5562C15.234 27.918 15.2862 29.437 15.7036 31.0084C16.4862 34.4654 18.6252 38.3938 22.0163 42.6365C19.8773 45.046 17.947 46.6697 16.0688 47.7173C14.7123 48.503 13.4081 48.922 12.1038 49.0792C10.6952 49.2363 9.3387 49.0268 8.13877 48.5554C5.58238 47.5078 3.75639 45.1507 3.39119 42.427C3.23467 41.1176 3.33902 39.8081 3.86073 38.3415C4.01724 37.8177 4.2781 37.2939 4.53895 36.6653C4.90415 35.8273 5.32152 34.9368 5.73889 34.0464L5.79106 33.9416C9.39088 26.1371 13.2515 18.1755 17.2687 10.4234L17.4252 10.1092C17.8426 9.32347 18.26 8.48541 18.6773 7.69972C19.0947 6.86165 19.5643 6.07597 20.1381 5.39504C21.2337 4.13794 22.6945 3.45702 24.3118 3.45702C25.9291 3.45702 27.3899 4.13794 28.4855 5.39504C29.0594 6.07597 29.529 6.86165 29.9463 7.69972C30.3637 8.48541 30.7811 9.32347 31.1984 10.1092L31.3549 10.4234C35.32 18.2279 39.1806 26.1895 42.7804 33.994V34.0464C43.1978 34.8844 43.563 35.8273 43.9804 36.6653C44.2412 37.2939 44.5021 37.8177 44.6586 38.3415C45.076 39.7033 45.2325 41.0128 45.0238 42.3746Z" fill="#FF5A5F"/>
</g>
<defs>
<clipPath id="clip0_2_524">
<rect width="166.409" height="52.1415" fill="white" transform="scale(1.00355)"/>
</clipPath>
</defs>
</svg>
