<svg width="174" height="145" viewBox="0 0 174 145" fill="none" xmlns="http://www.w3.org/2000/svg">
<ellipse cx="3.47063" cy="3.29545" rx="3.47063" ry="3.29545" fill="#DFEEFF"/>
<ellipse cx="3.47063" cy="23.0682" rx="3.47063" ry="3.29545" fill="#DFEEFF"/>
<ellipse cx="3.47063" cy="42.8409" rx="3.47063" ry="3.29545" fill="#DFEEFF"/>
<ellipse cx="3.47063" cy="62.6137" rx="3.47063" ry="3.29545" fill="#DFEEFF"/>
<ellipse cx="3.47063" cy="82.3864" rx="3.47063" ry="3.29545" fill="#DFEEFF"/>
<ellipse cx="3.47063" cy="102.159" rx="3.47063" ry="3.29545" fill="#DFEEFF"/>
<ellipse cx="3.47063" cy="121.932" rx="3.47063" ry="3.29545" fill="#DFEEFF"/>
<ellipse cx="3.47063" cy="141.705" rx="3.47063" ry="3.29545" fill="#DFEEFF"/>
<ellipse cx="24.2945" cy="3.29545" rx="3.47063" ry="3.29545" fill="#DFEEFF"/>
<ellipse cx="24.2945" cy="23.0682" rx="3.47063" ry="3.29545" fill="#DFEEFF"/>
<ellipse cx="24.2945" cy="42.8409" rx="3.47063" ry="3.29545" fill="#DFEEFF"/>
<ellipse cx="24.2945" cy="62.6137" rx="3.47063" ry="3.29545" fill="#DFEEFF"/>
<ellipse cx="24.2945" cy="82.3864" rx="3.47063" ry="3.29545" fill="#DFEEFF"/>
<ellipse cx="24.2945" cy="102.159" rx="3.47063" ry="3.29545" fill="#DFEEFF"/>
<ellipse cx="24.2945" cy="121.932" rx="3.47063" ry="3.29545" fill="#DFEEFF"/>
<ellipse cx="24.2945" cy="141.705" rx="3.47063" ry="3.29545" fill="#DFEEFF"/>
<ellipse cx="45.1182" cy="3.29545" rx="3.47063" ry="3.29545" fill="#DFEEFF"/>
<ellipse cx="45.1182" cy="23.0682" rx="3.47063" ry="3.29545" fill="#DFEEFF"/>
<ellipse cx="45.1182" cy="42.8409" rx="3.47063" ry="3.29545" fill="#DFEEFF"/>
<ellipse cx="45.1182" cy="62.6137" rx="3.47063" ry="3.29545" fill="#DFEEFF"/>
<ellipse cx="45.1182" cy="82.3864" rx="3.47063" ry="3.29545" fill="#DFEEFF"/>
<ellipse cx="45.1182" cy="102.159" rx="3.47063" ry="3.29545" fill="#DFEEFF"/>
<ellipse cx="45.1182" cy="121.932" rx="3.47063" ry="3.29545" fill="#DFEEFF"/>
<ellipse cx="45.1182" cy="141.705" rx="3.47063" ry="3.29545" fill="#DFEEFF"/>
<ellipse cx="65.9421" cy="3.29545" rx="3.47063" ry="3.29545" fill="#DFEEFF"/>
<ellipse cx="65.9421" cy="23.0682" rx="3.47063" ry="3.29545" fill="#DFEEFF"/>
<ellipse cx="65.9421" cy="42.8409" rx="3.47063" ry="3.29545" fill="#DFEEFF"/>
<ellipse cx="65.9421" cy="62.6137" rx="3.47063" ry="3.29545" fill="#DFEEFF"/>
<ellipse cx="65.9421" cy="82.3864" rx="3.47063" ry="3.29545" fill="#DFEEFF"/>
<ellipse cx="65.9421" cy="102.159" rx="3.47063" ry="3.29545" fill="#DFEEFF"/>
<ellipse cx="65.9421" cy="121.932" rx="3.47063" ry="3.29545" fill="#DFEEFF"/>
<ellipse cx="65.9421" cy="141.705" rx="3.47063" ry="3.29545" fill="#DFEEFF"/>
<ellipse cx="86.7657" cy="3.29545" rx="3.47063" ry="3.29545" fill="#DFEEFF"/>
<ellipse cx="86.7657" cy="23.0682" rx="3.47063" ry="3.29545" fill="#DFEEFF"/>
<ellipse cx="86.7657" cy="42.8409" rx="3.47063" ry="3.29545" fill="#DFEEFF"/>
<ellipse cx="86.7657" cy="62.6137" rx="3.47063" ry="3.29545" fill="#DFEEFF"/>
<ellipse cx="86.7657" cy="82.3864" rx="3.47063" ry="3.29545" fill="#DFEEFF"/>
<ellipse cx="86.7657" cy="102.159" rx="3.47063" ry="3.29545" fill="#DFEEFF"/>
<ellipse cx="86.7657" cy="121.932" rx="3.47063" ry="3.29545" fill="#DFEEFF"/>
<ellipse cx="86.7657" cy="141.705" rx="3.47063" ry="3.29545" fill="#DFEEFF"/>
<ellipse cx="107.59" cy="3.29545" rx="3.47063" ry="3.29545" fill="#DFEEFF"/>
<ellipse cx="107.59" cy="23.0682" rx="3.47063" ry="3.29545" fill="#DFEEFF"/>
<ellipse cx="107.59" cy="42.8409" rx="3.47063" ry="3.29545" fill="#DFEEFF"/>
<ellipse cx="107.59" cy="62.6137" rx="3.47063" ry="3.29545" fill="#DFEEFF"/>
<ellipse cx="107.59" cy="82.3864" rx="3.47063" ry="3.29545" fill="#DFEEFF"/>
<ellipse cx="107.59" cy="102.159" rx="3.47063" ry="3.29545" fill="#DFEEFF"/>
<ellipse cx="107.59" cy="121.932" rx="3.47063" ry="3.29545" fill="#DFEEFF"/>
<ellipse cx="107.59" cy="141.705" rx="3.47063" ry="3.29545" fill="#DFEEFF"/>
<ellipse cx="128.413" cy="3.29545" rx="3.47063" ry="3.29545" fill="#DFEEFF"/>
<ellipse cx="128.413" cy="23.0682" rx="3.47063" ry="3.29545" fill="#DFEEFF"/>
<ellipse cx="128.413" cy="42.8409" rx="3.47063" ry="3.29545" fill="#DFEEFF"/>
<ellipse cx="128.413" cy="62.6137" rx="3.47063" ry="3.29545" fill="#DFEEFF"/>
<ellipse cx="128.413" cy="82.3864" rx="3.47063" ry="3.29545" fill="#DFEEFF"/>
<ellipse cx="128.413" cy="102.159" rx="3.47063" ry="3.29545" fill="#DFEEFF"/>
<ellipse cx="128.413" cy="121.932" rx="3.47063" ry="3.29545" fill="#DFEEFF"/>
<ellipse cx="128.413" cy="141.705" rx="3.47063" ry="3.29545" fill="#DFEEFF"/>
<ellipse cx="149.237" cy="3.29545" rx="3.47063" ry="3.29545" fill="#DFEEFF"/>
<ellipse cx="149.237" cy="23.0682" rx="3.47063" ry="3.29545" fill="#DFEEFF"/>
<ellipse cx="149.237" cy="42.8409" rx="3.47063" ry="3.29545" fill="#DFEEFF"/>
<ellipse cx="149.237" cy="62.6137" rx="3.47063" ry="3.29545" fill="#DFEEFF"/>
<ellipse cx="149.237" cy="82.3864" rx="3.47063" ry="3.29545" fill="#DFEEFF"/>
<ellipse cx="149.237" cy="102.159" rx="3.47063" ry="3.29545" fill="#DFEEFF"/>
<ellipse cx="149.237" cy="121.932" rx="3.47063" ry="3.29545" fill="#DFEEFF"/>
<ellipse cx="149.237" cy="141.705" rx="3.47063" ry="3.29545" fill="#DFEEFF"/>
<ellipse cx="170.061" cy="3.29545" rx="3.47063" ry="3.29545" fill="#DFEEFF"/>
<ellipse cx="170.061" cy="23.0682" rx="3.47063" ry="3.29545" fill="#DFEEFF"/>
<ellipse cx="170.061" cy="42.8409" rx="3.47063" ry="3.29545" fill="#DFEEFF"/>
<ellipse cx="170.061" cy="62.6137" rx="3.47063" ry="3.29545" fill="#DFEEFF"/>
<ellipse cx="170.061" cy="82.3864" rx="3.47063" ry="3.29545" fill="#DFEEFF"/>
<ellipse cx="170.061" cy="102.159" rx="3.47063" ry="3.29545" fill="#DFEEFF"/>
<ellipse cx="170.061" cy="121.932" rx="3.47063" ry="3.29545" fill="#DFEEFF"/>
<ellipse cx="170.061" cy="141.705" rx="3.47063" ry="3.29545" fill="#DFEEFF"/>
</svg>
