<svg width="167" height="28" viewBox="0 0 167 28" fill="none" xmlns="http://www.w3.org/2000/svg">
<g clip-path="url(#clip0_2_520)">
<path d="M77.4173 11.2064C74.9418 11.2064 73.1858 13.1593 73.1858 16.157V27.1535H69.4068V7.79792H73.1405V10.1615C73.6011 9.3781 74.261 8.73317 75.052 8.29351C75.843 7.85386 76.7362 7.63549 77.6391 7.66103H78.9968V11.2064H77.4173ZM66.7954 17.4757C66.7954 11.7037 62.7222 7.38726 57.2099 7.38726C55.9075 7.39618 54.6196 7.66464 53.4205 8.17721C52.2214 8.68979 51.1346 9.43635 50.2227 10.3739C49.3108 11.3115 48.5918 12.4217 48.107 13.6405C47.6223 14.8593 47.3813 16.1627 47.3981 17.4757C47.3981 23.2431 51.8107 27.6052 57.5674 27.6052C59.1755 27.6358 60.7673 27.2763 62.2087 26.5568C63.65 25.8374 64.8987 24.7791 65.8495 23.4713L63.1069 21.4454C62.4777 22.3308 61.6452 23.0493 60.6805 23.5396C59.7158 24.0299 58.6476 24.2773 57.5674 24.2606C56.0289 24.2533 54.5439 23.6906 53.3816 22.6744C52.2192 21.6582 51.4564 20.2558 51.2314 18.7214H66.8045L66.7954 17.4757ZM51.3128 15.7008C51.9872 12.7486 54.327 10.7501 57.1646 10.7501C60.0023 10.7501 62.3376 12.7486 62.9712 15.7008H51.3128ZM35.4275 7.38726C34.1646 7.38833 32.9144 7.64171 31.7492 8.13276C30.584 8.62381 29.5268 9.34279 28.6389 10.2482V0.570378H24.8599V27.1535H28.5936V24.6987C30.4024 26.5435 32.8636 27.5889 35.4365 27.6052C36.7712 27.6338 38.0981 27.3935 39.3394 26.8983C40.5807 26.4031 41.7115 25.6631 42.6654 24.7215C43.6194 23.78 44.3773 22.6559 44.8947 21.4152C45.4121 20.1745 45.6786 18.8421 45.6786 17.4962C45.6786 16.1503 45.4121 14.818 44.8947 13.5773C44.3773 12.3366 43.6194 11.2125 42.6654 10.271C41.7115 9.32943 40.5807 8.58937 39.3394 8.09419C38.0981 7.59901 36.7712 7.35867 35.4365 7.38726H35.4275ZM35.1559 24.2013C33.8387 24.2077 32.5493 23.8193 31.4514 23.0857C30.3534 22.352 29.4964 21.306 28.989 20.0805C28.4816 18.855 28.3467 17.5051 28.6015 16.2021C28.8563 14.8992 29.4892 13.7019 30.42 12.7622C31.3508 11.8225 32.5374 11.1828 33.8294 10.9241C35.1214 10.6655 36.4605 10.7996 37.6768 11.3095C38.8931 11.8194 39.9317 12.682 40.6609 13.7879C41.3901 14.8939 41.777 16.1933 41.7726 17.5213C41.7738 18.3973 41.6034 19.2648 41.2712 20.0742C40.939 20.8836 40.4515 21.6189 39.8367 22.2378C39.2219 22.8568 38.492 23.3472 37.6887 23.6811C36.8855 24.0149 36.0247 24.1855 35.1559 24.1831V24.2013ZM10.9432 24.0188C14.5909 24.0188 17.4241 21.199 17.4241 16.9738V0.570378H21.3388V27.1535H17.4693V24.6394C16.5653 25.5814 15.4811 26.3287 14.2823 26.8361C13.0836 27.3435 11.7952 27.6005 10.4951 27.5915C4.86964 27.5915 0.538496 23.4576 0.538496 17.1882V0.570378H4.52568V16.9966C4.52568 21.2446 7.24113 24.0188 10.9432 24.0188V24.0188Z" fill="#262626"/>
<path d="M88.3968 0.570378H106.894V5.13322H93.3932V11.6125H106.518V16.0202H93.3932V22.6089H106.894V27.1717H88.3968V0.570378ZM157.976 27.6508C163.646 27.6508 166.842 24.9131 166.842 21.1534C166.842 18.475 164.95 16.4764 160.99 15.6095L156.803 14.7471C154.373 14.2908 153.608 13.8346 153.608 12.922C153.608 11.7402 154.78 11.0147 156.939 11.0147C159.279 11.0147 161.012 11.649 161.465 13.83H166.371C166.104 9.72344 163.176 7.01311 157.238 7.01311C152.106 7.01311 148.503 9.14852 148.503 13.287C148.503 16.1479 150.485 18.0096 154.762 18.9176L159.442 20.0081C161.288 20.3731 161.782 20.875 161.782 21.6461C161.782 22.8735 160.388 23.6447 158.134 23.6447C155.301 23.6447 153.681 23.0104 153.052 20.8294H148.119C148.838 24.9268 151.852 27.6508 157.976 27.6508ZM146.693 27.1535H141.384C138.053 27.1535 136.207 25.0637 136.207 22.4264V11.9775H132.473V7.52415H136.225V1.93467H141.158V7.52415H146.693V11.9775H141.158V21.1534C141.158 22.1982 141.878 22.7002 143.004 22.7002H146.693V27.1535ZM125.422 7.53327V9.30366C123.685 7.82341 121.482 7.01468 119.208 7.02224C117.846 6.99336 116.493 7.2388 115.227 7.74417C113.96 8.24955 112.807 9.00468 111.834 9.96531C110.861 10.9259 110.088 12.0727 109.56 13.3385C109.032 14.6042 108.76 15.9635 108.76 17.3365C108.76 18.7096 109.032 20.0688 109.56 21.3346C110.088 22.6003 110.861 23.7471 111.834 24.7078C112.807 25.6684 113.96 26.4235 115.227 26.9289C116.493 27.4343 117.846 27.6797 119.208 27.6508C121.483 27.6608 123.686 26.8518 125.422 25.3694V27.1444H130.341V7.52415L125.422 7.53327ZM119.615 23.3435C118.435 23.3571 117.278 23.0166 116.29 22.3654C115.303 21.7142 114.529 20.7817 114.068 19.6863C113.608 18.5909 113.48 17.3822 113.703 16.2137C113.925 15.0451 114.487 13.9696 115.317 13.1238C116.147 12.278 117.207 11.7001 118.364 11.4635C119.521 11.2269 120.721 11.3423 121.812 11.795C122.904 12.2478 123.837 13.0175 124.493 14.0062C125.15 14.9949 125.5 16.1581 125.499 17.3479C125.506 18.1323 125.359 18.9102 125.066 19.6368C124.773 20.3634 124.34 21.0242 123.792 21.581C123.244 22.1377 122.592 22.5794 121.873 22.8803C121.155 23.1813 120.384 23.3356 119.606 23.3344L119.615 23.3435Z" fill="#5FB709"/>
</g>
<defs>
<clipPath id="clip0_2_520">
<rect width="166.409" height="27.7348" fill="white" transform="scale(1.00355)"/>
</clipPath>
</defs>
</svg>
