<svg width="151" height="50" viewBox="0 0 151 50" fill="none" xmlns="http://www.w3.org/2000/svg">
<g clip-path="url(#clip0_2_526)">
<path d="M146.297 30.2803L150.486 33.0729C149.126 35.0754 145.874 38.511 140.252 38.511C133.271 38.511 128.072 33.1096 128.072 26.2384C128.072 18.9263 133.326 13.9658 139.664 13.9658C146.04 13.9658 149.163 19.0365 150.173 21.774L150.724 23.1702L134.3 29.968C135.549 32.4298 137.496 33.6791 140.252 33.6791C143.008 33.6791 144.919 32.3196 146.297 30.2803ZM133.418 25.8526L144.386 21.2963C143.78 19.7714 141.979 18.6874 139.83 18.6874C137.092 18.6874 133.289 21.1126 133.418 25.8526Z" fill="#FF302F"/>
<path d="M120.153 1.45432H125.444V37.3903H120.153V1.45432Z" fill="#20B15A"/>
<path d="M111.812 14.9211H116.92V36.7473C116.92 45.8048 111.573 49.5343 105.253 49.5343C99.3007 49.5343 95.7181 45.5292 94.3769 42.2773L99.0618 40.3299C99.9069 42.3324 101.946 44.7024 105.253 44.7024C109.314 44.7024 111.812 42.1855 111.812 37.4822V35.7184H111.628C110.416 37.1882 108.101 38.511 105.161 38.511C99.0251 38.511 93.4032 33.1647 93.4032 26.2751C93.4032 19.3488 99.0251 13.9474 105.161 13.9474C108.083 13.9474 110.416 15.2518 111.628 16.6849H111.812V14.9211ZM112.18 26.2751C112.18 21.9393 109.295 18.7793 105.621 18.7793C101.91 18.7793 98.7862 21.9393 98.7862 26.2751C98.7862 30.5559 101.91 33.6608 105.621 33.6608C109.295 33.6791 112.18 30.5559 112.18 26.2751Z" fill="#3686F7"/>
<path d="M64.3568 26.1833C64.3568 33.2566 58.8451 38.4559 52.0842 38.4559C45.3232 38.4559 39.8115 33.2382 39.8115 26.1833C39.8115 19.0732 45.3232 13.8923 52.0842 13.8923C58.8451 13.8923 64.3568 19.0732 64.3568 26.1833ZM58.9921 26.1833C58.9921 21.774 55.7953 18.7425 52.0842 18.7425C48.373 18.7425 45.1762 21.774 45.1762 26.1833C45.1762 30.5559 48.373 33.624 52.0842 33.624C55.7953 33.624 58.9921 30.5559 58.9921 26.1833Z" fill="#FF302F"/>
<path d="M91.1618 26.2384C91.1618 33.3117 85.6501 38.511 78.8892 38.511C72.1282 38.511 66.6165 33.3117 66.6165 26.2384C66.6165 19.1284 72.1282 13.9658 78.8892 13.9658C85.6501 13.9658 91.1618 19.11 91.1618 26.2384ZM85.7787 26.2384C85.7787 21.8291 82.582 18.7977 78.8708 18.7977C75.1596 18.7977 71.9629 21.8291 71.9629 26.2384C71.9629 30.611 75.1596 33.6791 78.8708 33.6791C82.6004 33.6791 85.7787 30.5926 85.7787 26.2384Z" fill="#FFBA40"/>
<path d="M19.6389 33.128C11.9409 33.128 5.91485 26.9182 5.91485 19.2203C5.91485 11.5223 11.9409 5.31251 19.6389 5.31251C23.791 5.31251 26.8224 6.94763 29.0638 9.04206L32.7566 5.34925C29.6333 2.35458 25.4629 0.0764335 19.6389 0.0764335C9.09324 0.0764335 0.219471 8.67462 0.219471 19.2203C0.219471 29.7659 9.09324 38.3641 19.6389 38.3641C25.3342 38.3641 29.6333 36.4901 32.9955 32.9994C36.4494 29.5454 37.515 24.6952 37.515 20.7635C37.515 19.5326 37.368 18.2649 37.2027 17.3279H19.6389V22.4354H32.1503C31.7829 25.6321 30.7724 27.8184 29.2843 29.3066C27.4838 31.1254 24.6361 33.128 19.6389 33.128Z" fill="#3686F7"/>
</g>
<defs>
<clipPath id="clip0_2_526">
<rect width="150.483" height="49.3773" fill="white" transform="scale(1.00343)"/>
</clipPath>
</defs>
</svg>
