<svg width="142" height="43" viewBox="0 0 142 43" fill="none" xmlns="http://www.w3.org/2000/svg">
<g clip-path="url(#clip0_2_534)">
<path fill-rule="evenodd" clip-rule="evenodd" d="M88.094 33.4255C79.8421 39.5007 67.8816 42.742 57.5837 42.742C43.1445 42.742 30.1455 37.4077 20.3113 28.5358C19.5386 27.8381 20.2309 26.8874 21.1581 27.4307C31.7712 33.5984 44.8938 37.3089 58.4491 37.3089C67.5911 37.3089 77.6478 35.4197 86.8949 31.4993C88.2918 30.9066 89.46 32.413 88.094 33.4255" fill="#FF9900"/>
<path fill-rule="evenodd" clip-rule="evenodd" d="M91.5245 29.5052C90.4737 28.1592 84.5522 28.8692 81.8943 29.1841C81.0846 29.2829 80.9609 28.5791 81.6903 28.0728C86.4065 24.7574 94.1453 25.7144 95.0478 26.8257C95.9502 27.9432 94.8129 35.6914 90.381 39.3896C89.7011 39.9576 89.0521 39.6551 89.3549 38.9018C90.3501 36.4199 92.5815 30.8572 91.5245 29.5052" fill="#FF9900"/>
<path fill-rule="evenodd" clip-rule="evenodd" d="M82.0797 4.66755V1.44477C82.0797 0.957036 82.4506 0.629819 82.8956 0.629819H97.341C97.8046 0.629819 98.1755 0.963211 98.1755 1.44477V4.20451C98.1693 4.66755 97.7799 5.2726 97.0876 6.22955L89.6022 16.9042C92.3837 16.8363 95.3198 17.25 97.8417 18.67C98.4103 18.991 98.5649 19.4602 98.6081 19.9233V23.3622C98.6081 23.8314 98.0889 24.3808 97.545 24.0968C93.1007 21.7693 87.1977 21.5162 82.2837 24.1215C81.783 24.3932 81.2576 23.8499 81.2576 23.3807V20.1147C81.2576 19.5899 81.2638 18.6947 81.7892 17.8982L90.4614 5.47634H82.9142C82.4506 5.47634 82.0797 5.14912 82.0797 4.66755" fill="black"/>
<path fill-rule="evenodd" clip-rule="evenodd" d="M29.3852 24.7759H24.9904C24.5701 24.7451 24.2363 24.4302 24.2054 24.0289V1.50032C24.2054 1.04963 24.5824 0.691536 25.0522 0.691536H29.1503C29.5768 0.710046 29.9168 1.03727 29.9477 1.44475V4.38971H30.0281C31.0974 1.54353 33.1063 0.216144 35.8136 0.216144C38.5642 0.216144 40.2826 1.54353 41.5188 4.38971C42.582 1.54353 44.9988 0.216144 47.5888 0.216144C49.4307 0.216144 51.4458 0.975535 52.6759 2.67953C54.0666 4.57492 53.7823 7.32848 53.7823 9.74248L53.7761 23.961C53.7761 24.4117 53.3991 24.7759 52.9293 24.7759H48.5407C48.1018 24.7451 47.7495 24.3932 47.7495 23.961V12.0207C47.7495 11.0699 47.836 8.69909 47.6258 7.7977C47.2982 6.2851 46.3154 5.85909 45.0421 5.85909C43.979 5.85909 42.8663 6.56909 42.4151 7.70509C41.9639 8.84109 42.0072 10.7427 42.0072 12.0207V23.961C42.0072 24.4117 41.6301 24.7759 41.1603 24.7759H36.7717C36.3267 24.7451 35.9805 24.3932 35.9805 23.961L35.9743 12.0207C35.9743 9.50787 36.3885 5.8097 33.267 5.8097C30.1084 5.8097 30.232 9.41526 30.232 12.0207V23.961C30.232 24.4117 29.855 24.7759 29.3852 24.7759" fill="black"/>
<path fill-rule="evenodd" clip-rule="evenodd" d="M110.612 0.216144C117.133 0.216144 120.662 5.8097 120.662 12.922C120.662 19.7936 116.762 25.2452 110.612 25.2452C104.208 25.2452 100.722 19.6516 100.722 12.6813C100.722 5.6677 104.251 0.216144 110.612 0.216144V0.216144ZM110.649 4.81571C107.41 4.81571 107.206 9.22387 107.206 11.9713C107.206 14.7248 107.163 20.6024 110.612 20.6024C114.018 20.6024 114.178 15.8608 114.178 12.9714C114.178 11.0699 114.098 8.79788 113.523 6.99509C113.029 5.42692 112.046 4.81571 110.649 4.81571" fill="black"/>
<path fill-rule="evenodd" clip-rule="evenodd" d="M129.118 24.7759H124.742C124.303 24.7451 123.951 24.3932 123.951 23.961L123.945 1.42623C123.982 1.01258 124.346 0.691536 124.792 0.691536H128.865C129.248 0.710046 129.563 0.969363 129.65 1.32128V4.76631H129.73C130.96 1.68553 132.685 0.216144 135.72 0.216144C137.692 0.216144 139.614 0.926145 140.85 2.87092C142 4.6737 142 7.70509 142 9.88448V24.0659C141.95 24.4611 141.586 24.7759 141.153 24.7759H136.746C136.344 24.7451 136.01 24.4487 135.967 24.0659V11.8293C135.967 9.36587 136.251 5.76031 133.216 5.76031C132.147 5.76031 131.164 6.47649 130.676 7.56309C130.058 8.93988 129.978 10.3105 129.978 11.8293V23.961C129.971 24.4117 129.588 24.7759 129.118 24.7759" fill="black"/>
<path fill-rule="evenodd" clip-rule="evenodd" d="M70.5642 14.0148C70.5642 15.7249 70.6075 17.1511 69.7421 18.6699C69.0436 19.9047 67.931 20.6641 66.701 20.6641C65.0135 20.6641 64.0245 19.3799 64.0245 17.4845C64.0245 13.7431 67.3809 13.064 70.5642 13.064V14.0148V14.0148ZM74.9961 24.7142C74.7056 24.9735 74.2853 24.992 73.9577 24.8191C72.4989 23.609 72.2331 23.0472 71.4358 21.8927C69.0251 24.3499 67.3129 25.0846 64.1914 25.0846C60.4889 25.0846 57.6147 22.8064 57.6147 18.2439C57.6147 14.6816 59.5432 12.2552 62.3 11.0698C64.6859 10.0203 68.0176 9.83504 70.5642 9.54487V8.97687C70.5642 7.93347 70.6446 6.69869 70.0264 5.7973C69.4949 4.98852 68.4688 4.65513 67.5602 4.65513C65.8851 4.65513 64.3954 5.5133 64.0307 7.29139C63.9565 7.68652 63.666 8.07548 63.2642 8.094L59.0054 7.63712C58.6469 7.55687 58.2451 7.26669 58.3502 6.71722C59.3268 1.55583 63.9998 0 68.1783 0C70.317 0 73.1109 0.568001 74.7983 2.18556C76.937 4.17974 76.733 6.84069 76.733 9.73626V16.5769C76.733 18.6329 77.586 19.5342 78.3896 20.6456C78.6677 21.0407 78.7295 21.5161 78.371 21.8124C77.4747 22.5595 75.88 23.9486 75.0023 24.7265L74.9961 24.7141" fill="black"/>
<path fill-rule="evenodd" clip-rule="evenodd" d="M12.9496 14.0148C12.9496 15.7249 12.9928 17.1511 12.1275 18.6699C11.429 19.9047 10.3226 20.6641 9.08632 20.6641C7.39886 20.6641 6.41605 19.3799 6.41605 17.4845C6.41605 13.7431 9.77243 13.064 12.9496 13.064V14.0148V14.0148ZM17.3814 24.7142C17.0909 24.9735 16.6706 24.992 16.343 24.8191C14.8843 23.609 14.6246 23.0472 13.8211 21.8927C11.4104 24.3499 9.70444 25.0846 6.57676 25.0846C2.88042 25.0846 0 22.8064 0 18.2439C0 14.6816 1.93471 12.2552 4.68533 11.0698C7.07126 10.0203 10.4029 9.83504 12.9496 9.54487V8.97687C12.9496 7.93347 13.0299 6.69869 12.418 5.7973C11.8802 4.98852 10.8541 4.65513 9.95168 4.65513C8.27659 4.65513 6.78074 5.5133 6.41605 7.29139C6.34188 7.68652 6.05136 8.07548 5.65577 8.094L1.39076 7.63712C1.03225 7.55687 0.636659 7.26669 0.735558 6.71722C1.71836 1.55583 6.38515 0 10.5636 0C12.7023 0 15.4962 0.568001 17.1836 2.18556C19.3223 4.17974 19.1184 6.84069 19.1184 9.73626V16.5769C19.1184 18.6329 19.9714 19.5342 20.7749 20.6456C21.0592 21.0407 21.1211 21.5161 20.7625 21.8124C19.8663 22.5595 18.2715 23.9486 17.3938 24.7265L17.3815 24.7141" fill="black"/>
</g>
<defs>
<clipPath id="clip0_2_534">
<rect width="141.547" height="42.6055" fill="white" transform="scale(1.0032)"/>
</clipPath>
</defs>
</svg>
