<svg width="112" height="118" viewBox="0 0 112 118" fill="none" xmlns="http://www.w3.org/2000/svg">
<ellipse cx="1.99204" cy="2.68182" rx="1.99204" ry="2.68182" fill="#F4F4F4"/>
<ellipse cx="1.99204" cy="18.7728" rx="1.99204" ry="2.68182" fill="#F4F4F4"/>
<ellipse cx="1.99204" cy="34.8637" rx="1.99204" ry="2.68182" fill="#F4F4F4"/>
<ellipse cx="1.99204" cy="50.9546" rx="1.99204" ry="2.68182" fill="#F4F4F4"/>
<ellipse cx="1.99204" cy="67.0455" rx="1.99204" ry="2.68182" fill="#F4F4F4"/>
<ellipse cx="1.99204" cy="83.1363" rx="1.99204" ry="2.68182" fill="#F4F4F4"/>
<ellipse cx="1.99204" cy="99.2273" rx="1.99204" ry="2.68182" fill="#F4F4F4"/>
<ellipse cx="1.99204" cy="115.318" rx="1.99204" ry="2.68182" fill="#F4F4F4"/>
<ellipse cx="13.9443" cy="2.68182" rx="1.99204" ry="2.68182" fill="#F4F4F4"/>
<ellipse cx="13.9443" cy="18.7728" rx="1.99204" ry="2.68182" fill="#F4F4F4"/>
<ellipse cx="13.9443" cy="34.8637" rx="1.99204" ry="2.68182" fill="#F4F4F4"/>
<ellipse cx="13.9443" cy="50.9546" rx="1.99204" ry="2.68182" fill="#F4F4F4"/>
<ellipse cx="13.9443" cy="67.0455" rx="1.99204" ry="2.68182" fill="#F4F4F4"/>
<ellipse cx="13.9443" cy="83.1363" rx="1.99204" ry="2.68182" fill="#F4F4F4"/>
<ellipse cx="13.9443" cy="99.2273" rx="1.99204" ry="2.68182" fill="#F4F4F4"/>
<ellipse cx="13.9443" cy="115.318" rx="1.99204" ry="2.68182" fill="#F4F4F4"/>
<ellipse cx="25.8966" cy="2.68182" rx="1.99204" ry="2.68182" fill="#F4F4F4"/>
<ellipse cx="25.8966" cy="18.7728" rx="1.99204" ry="2.68182" fill="#F4F4F4"/>
<ellipse cx="25.8966" cy="34.8637" rx="1.99204" ry="2.68182" fill="#F4F4F4"/>
<ellipse cx="25.8966" cy="50.9546" rx="1.99204" ry="2.68182" fill="#F4F4F4"/>
<ellipse cx="25.8966" cy="67.0455" rx="1.99204" ry="2.68182" fill="#F4F4F4"/>
<ellipse cx="25.8966" cy="83.1363" rx="1.99204" ry="2.68182" fill="#F4F4F4"/>
<ellipse cx="25.8966" cy="99.2273" rx="1.99204" ry="2.68182" fill="#F4F4F4"/>
<ellipse cx="25.8966" cy="115.318" rx="1.99204" ry="2.68182" fill="#F4F4F4"/>
<ellipse cx="37.8488" cy="2.68182" rx="1.99204" ry="2.68182" fill="#F4F4F4"/>
<ellipse cx="37.8488" cy="18.7728" rx="1.99204" ry="2.68182" fill="#F4F4F4"/>
<ellipse cx="37.8488" cy="34.8637" rx="1.99204" ry="2.68182" fill="#F4F4F4"/>
<ellipse cx="37.8488" cy="50.9546" rx="1.99204" ry="2.68182" fill="#F4F4F4"/>
<ellipse cx="37.8488" cy="67.0455" rx="1.99204" ry="2.68182" fill="#F4F4F4"/>
<ellipse cx="37.8488" cy="83.1363" rx="1.99204" ry="2.68182" fill="#F4F4F4"/>
<ellipse cx="37.8488" cy="99.2273" rx="1.99204" ry="2.68182" fill="#F4F4F4"/>
<ellipse cx="37.8488" cy="115.318" rx="1.99204" ry="2.68182" fill="#F4F4F4"/>
<ellipse cx="49.8009" cy="2.68182" rx="1.99204" ry="2.68182" fill="#F4F4F4"/>
<ellipse cx="49.8009" cy="18.7728" rx="1.99204" ry="2.68182" fill="#F4F4F4"/>
<ellipse cx="49.8009" cy="34.8637" rx="1.99204" ry="2.68182" fill="#F4F4F4"/>
<ellipse cx="49.8009" cy="50.9546" rx="1.99204" ry="2.68182" fill="#F4F4F4"/>
<ellipse cx="49.8009" cy="67.0455" rx="1.99204" ry="2.68182" fill="#F4F4F4"/>
<ellipse cx="49.8009" cy="83.1363" rx="1.99204" ry="2.68182" fill="#F4F4F4"/>
<ellipse cx="49.8009" cy="99.2273" rx="1.99204" ry="2.68182" fill="#F4F4F4"/>
<ellipse cx="49.8009" cy="115.318" rx="1.99204" ry="2.68182" fill="#F4F4F4"/>
<ellipse cx="61.7531" cy="2.68182" rx="1.99204" ry="2.68182" fill="#F4F4F4"/>
<ellipse cx="61.7531" cy="18.7728" rx="1.99204" ry="2.68182" fill="#F4F4F4"/>
<ellipse cx="61.7531" cy="34.8637" rx="1.99204" ry="2.68182" fill="#F4F4F4"/>
<ellipse cx="61.7531" cy="50.9546" rx="1.99204" ry="2.68182" fill="#F4F4F4"/>
<ellipse cx="61.7531" cy="67.0455" rx="1.99204" ry="2.68182" fill="#F4F4F4"/>
<ellipse cx="61.7531" cy="83.1363" rx="1.99204" ry="2.68182" fill="#F4F4F4"/>
<ellipse cx="61.7531" cy="99.2273" rx="1.99204" ry="2.68182" fill="#F4F4F4"/>
<ellipse cx="61.7531" cy="115.318" rx="1.99204" ry="2.68182" fill="#F4F4F4"/>
<ellipse cx="73.7054" cy="2.68182" rx="1.99204" ry="2.68182" fill="#F4F4F4"/>
<ellipse cx="73.7054" cy="18.7728" rx="1.99204" ry="2.68182" fill="#F4F4F4"/>
<ellipse cx="73.7054" cy="34.8637" rx="1.99204" ry="2.68182" fill="#F4F4F4"/>
<ellipse cx="73.7054" cy="50.9546" rx="1.99204" ry="2.68182" fill="#F4F4F4"/>
<ellipse cx="73.7054" cy="67.0455" rx="1.99204" ry="2.68182" fill="#F4F4F4"/>
<ellipse cx="73.7054" cy="83.1363" rx="1.99204" ry="2.68182" fill="#F4F4F4"/>
<ellipse cx="73.7054" cy="99.2273" rx="1.99204" ry="2.68182" fill="#F4F4F4"/>
<ellipse cx="73.7054" cy="115.318" rx="1.99204" ry="2.68182" fill="#F4F4F4"/>
<ellipse cx="85.6577" cy="2.68182" rx="1.99204" ry="2.68182" fill="#F4F4F4"/>
<ellipse cx="85.6577" cy="18.7728" rx="1.99204" ry="2.68182" fill="#F4F4F4"/>
<ellipse cx="85.6577" cy="34.8637" rx="1.99204" ry="2.68182" fill="#F4F4F4"/>
<ellipse cx="85.6577" cy="50.9546" rx="1.99204" ry="2.68182" fill="#F4F4F4"/>
<ellipse cx="85.6577" cy="67.0455" rx="1.99204" ry="2.68182" fill="#F4F4F4"/>
<ellipse cx="85.6577" cy="83.1363" rx="1.99204" ry="2.68182" fill="#F4F4F4"/>
<ellipse cx="85.6577" cy="99.2273" rx="1.99204" ry="2.68182" fill="#F4F4F4"/>
<ellipse cx="85.6577" cy="115.318" rx="1.99204" ry="2.68182" fill="#F4F4F4"/>
<ellipse cx="97.6097" cy="2.68182" rx="1.99204" ry="2.68182" fill="#F4F4F4"/>
<ellipse cx="97.6097" cy="18.7728" rx="1.99204" ry="2.68182" fill="#F4F4F4"/>
<ellipse cx="97.6097" cy="34.8637" rx="1.99204" ry="2.68182" fill="#F4F4F4"/>
<ellipse cx="97.6097" cy="50.9546" rx="1.99204" ry="2.68182" fill="#F4F4F4"/>
<ellipse cx="97.6097" cy="67.0455" rx="1.99204" ry="2.68182" fill="#F4F4F4"/>
<ellipse cx="97.6097" cy="83.1363" rx="1.99204" ry="2.68182" fill="#F4F4F4"/>
<ellipse cx="97.6097" cy="99.2273" rx="1.99204" ry="2.68182" fill="#F4F4F4"/>
<ellipse cx="97.6097" cy="115.318" rx="1.99204" ry="2.68182" fill="#F4F4F4"/>
<ellipse cx="109.562" cy="2.68182" rx="1.99204" ry="2.68182" fill="#F4F4F4"/>
<ellipse cx="109.562" cy="18.7728" rx="1.99204" ry="2.68182" fill="#F4F4F4"/>
<ellipse cx="109.562" cy="34.8637" rx="1.99204" ry="2.68182" fill="#F4F4F4"/>
<ellipse cx="109.562" cy="50.9546" rx="1.99204" ry="2.68182" fill="#F4F4F4"/>
<ellipse cx="109.562" cy="67.0455" rx="1.99204" ry="2.68182" fill="#F4F4F4"/>
<ellipse cx="109.562" cy="83.1363" rx="1.99204" ry="2.68182" fill="#F4F4F4"/>
<ellipse cx="109.562" cy="99.2273" rx="1.99204" ry="2.68182" fill="#F4F4F4"/>
<ellipse cx="109.562" cy="115.318" rx="1.99204" ry="2.68182" fill="#F4F4F4"/>
</svg>
