<svg width="36" height="36" viewBox="0 0 36 36" fill="none" xmlns="http://www.w3.org/2000/svg">
<g clip-path="url(#clip0_105_647)">
<path d="M18 35.9998C27.9411 35.9998 36 27.9409 36 17.9998C36 8.05863 27.9411 -0.000244141 18 -0.000244141C8.05888 -0.000244141 0 8.05863 0 17.9998C0 27.9409 8.05888 35.9998 18 35.9998Z" fill="#007AB9"/>
<path d="M28.7549 19.4483V26.8693H24.4524V19.9456C24.4524 18.2071 23.8312 17.0199 22.2734 17.0199C21.0846 17.0199 20.3783 17.8192 20.0665 18.5931C19.9532 18.8697 19.924 19.2538 19.924 19.6417V26.8689H15.6212C15.6212 26.8689 15.6789 15.1425 15.6212 13.9287H19.9243V15.7625C19.9157 15.7769 19.9035 15.791 19.8958 15.8048H19.9243V15.7625C20.4961 14.8826 21.5158 13.6248 23.802 13.6248C26.6327 13.6248 28.7549 15.4743 28.7549 19.4483ZM11.12 7.69104C9.64822 7.69104 8.6853 8.65717 8.6853 9.92652C8.6853 11.1689 9.62031 12.163 11.0636 12.163H11.0915C12.5922 12.163 13.5253 11.1689 13.5253 9.92652C13.4967 8.65717 12.5922 7.69104 11.12 7.69104ZM8.94103 26.8693H13.2423V13.9287H8.94103V26.8693Z" fill="#F1F2F2"/>
</g>
<defs>
<clipPath id="clip0_105_647">
<rect width="36" height="36" fill="white"/>
</clipPath>
</defs>
</svg>
