<svg width="74" height="74" viewBox="0 0 74 74" fill="none" xmlns="http://www.w3.org/2000/svg">
<path d="M36.9982 41.0081C36.5974 41.0081 36.1966 40.9156 35.8266 40.6997L8.60062 24.9439C7.49062 24.2964 7.12056 22.878 7.76806 21.768C8.41556 20.658 9.80306 20.2879 10.9439 20.9354L36.9982 36.0131L62.8979 21.028C64.0079 20.3805 65.4263 20.7814 66.0738 21.8606C66.7213 22.9706 66.3207 24.3888 65.2416 25.0363L38.2007 40.6997C37.7999 40.8847 37.3991 41.0081 36.9982 41.0081Z" fill="#2639ED"/>
<path d="M37 68.9434C35.7358 68.9434 34.6875 67.895 34.6875 66.6309V38.665C34.6875 37.4009 35.7358 36.3525 37 36.3525C38.2642 36.3525 39.3125 37.4009 39.3125 38.665V66.6309C39.3125 67.895 38.2642 68.9434 37 68.9434Z" fill="#2639ED"/>
<path d="M36.9966 70.1465C34.1908 70.1465 31.5083 69.499 29.4733 68.3582L13.0083 59.2318C8.53743 56.7651 5.02246 50.814 5.02246 45.6957V28.244C5.02246 23.1257 8.53743 17.2059 13.0083 14.7084L29.4733 5.5816C33.6666 3.23826 40.2649 3.23826 44.4891 5.5816L60.9541 14.7084C65.4249 17.175 68.9399 23.1257 68.9399 28.244V39.529C68.9399 40.7932 67.8916 41.8415 66.6274 41.8415C65.3633 41.8415 64.3149 40.7932 64.3149 39.529V28.244C64.3149 24.8524 61.6941 20.4125 58.7341 18.7784L42.2691 9.65163C39.4633 8.07913 34.5608 8.07913 31.7549 9.65163L15.2899 18.7784C12.2991 20.4434 9.7091 24.8524 9.7091 28.244V45.6957C9.7091 49.0873 12.3299 53.5276 15.2899 55.1618L31.7549 64.2882C34.4683 65.799 39.5866 65.799 42.2691 64.2882C43.3791 63.6715 44.7974 64.0726 45.4141 65.1826C46.0308 66.2926 45.6299 67.7107 44.5199 68.3273C42.4849 69.499 39.8024 70.1465 36.9966 70.1465Z" fill="#2639ED"/>
<path d="M59.1999 68.2958C52.4783 68.2958 47.0208 62.8383 47.0208 56.1167C47.0208 49.395 52.4783 43.9375 59.1999 43.9375C65.9216 43.9375 71.3791 49.395 71.3791 56.1167C71.3791 62.8383 65.9216 68.2958 59.1999 68.2958ZM59.1999 48.5625C55.0374 48.5625 51.6458 51.9542 51.6458 56.1167C51.6458 60.2792 55.0374 63.6708 59.1999 63.6708C63.3624 63.6708 66.7541 60.2792 66.7541 56.1167C66.7541 51.9542 63.3624 48.5625 59.1999 48.5625Z" fill="#2639ED"/>
<path d="M70.9152 70.1459C70.3294 70.1459 69.7436 69.9301 69.2811 69.4676L66.1977 66.3842C65.3036 65.49 65.3036 64.0097 66.1977 63.1156C67.0919 62.2214 68.5719 62.2214 69.4661 63.1156L72.5494 66.1989C73.4436 67.0931 73.4436 68.5734 72.5494 69.4676C72.0869 69.9301 71.5011 70.1459 70.9152 70.1459Z" fill="#2639ED"/>
</svg>
