<svg width="404" height="178" viewBox="0 0 404 178" fill="none" xmlns="http://www.w3.org/2000/svg">
<ellipse cx="211.5" cy="4.04545" rx="3.5" ry="4.04545" fill="#FFE200" fill-opacity="0.74"/>
<ellipse cx="211.5" cy="28.3182" rx="3.5" ry="4.04545" fill="#FFE200" fill-opacity="0.74"/>
<ellipse cx="211.5" cy="52.5909" rx="3.5" ry="4.04545" fill="#FFE200" fill-opacity="0.74"/>
<ellipse cx="211.5" cy="76.8637" rx="3.5" ry="4.04545" fill="#FFE200" fill-opacity="0.74"/>
<ellipse cx="211.5" cy="101.136" rx="3.5" ry="4.04545" fill="#FFE200" fill-opacity="0.74"/>
<ellipse cx="211.5" cy="125.409" rx="3.5" ry="4.04545" fill="#FFE200" fill-opacity="0.74"/>
<ellipse cx="211.5" cy="149.682" rx="3.5" ry="4.04545" fill="#FFE200" fill-opacity="0.74"/>
<ellipse cx="211.5" cy="173.955" rx="3.5" ry="4.04545" fill="#FFE200" fill-opacity="0.74"/>
<ellipse cx="232.5" cy="4.04545" rx="3.5" ry="4.04545" fill="#FFE200" fill-opacity="0.74"/>
<ellipse cx="232.5" cy="28.3182" rx="3.5" ry="4.04545" fill="#FFE200" fill-opacity="0.74"/>
<ellipse cx="232.5" cy="52.5909" rx="3.5" ry="4.04545" fill="#FFE200" fill-opacity="0.74"/>
<ellipse cx="232.5" cy="76.8637" rx="3.5" ry="4.04545" fill="#FFE200" fill-opacity="0.74"/>
<ellipse cx="232.5" cy="101.136" rx="3.5" ry="4.04545" fill="#FFE200" fill-opacity="0.74"/>
<ellipse cx="232.5" cy="125.409" rx="3.5" ry="4.04545" fill="#FFE200" fill-opacity="0.74"/>
<ellipse cx="232.5" cy="149.682" rx="3.5" ry="4.04545" fill="#FFE200" fill-opacity="0.74"/>
<ellipse cx="232.5" cy="173.955" rx="3.5" ry="4.04545" fill="#FFE200" fill-opacity="0.74"/>
<ellipse cx="253.5" cy="4.04545" rx="3.5" ry="4.04545" fill="#FFE200" fill-opacity="0.74"/>
<ellipse cx="253.5" cy="28.3182" rx="3.5" ry="4.04545" fill="#FFE200" fill-opacity="0.74"/>
<ellipse cx="253.5" cy="52.5909" rx="3.5" ry="4.04545" fill="#FFE200" fill-opacity="0.74"/>
<ellipse cx="253.5" cy="76.8637" rx="3.5" ry="4.04545" fill="#FFE200" fill-opacity="0.74"/>
<ellipse cx="253.5" cy="101.136" rx="3.5" ry="4.04545" fill="#FFE200" fill-opacity="0.74"/>
<ellipse cx="253.5" cy="125.409" rx="3.5" ry="4.04545" fill="#FFE200" fill-opacity="0.74"/>
<ellipse cx="253.5" cy="149.682" rx="3.5" ry="4.04545" fill="#FFE200" fill-opacity="0.74"/>
<ellipse cx="253.5" cy="173.955" rx="3.5" ry="4.04545" fill="#FFE200" fill-opacity="0.74"/>
<ellipse cx="274.5" cy="4.04545" rx="3.5" ry="4.04545" fill="#FFE200" fill-opacity="0.74"/>
<ellipse cx="274.5" cy="28.3182" rx="3.5" ry="4.04545" fill="#FFE200" fill-opacity="0.74"/>
<ellipse cx="274.5" cy="52.5909" rx="3.5" ry="4.04545" fill="#FFE200" fill-opacity="0.74"/>
<ellipse cx="274.5" cy="76.8637" rx="3.5" ry="4.04545" fill="#FFE200" fill-opacity="0.74"/>
<ellipse cx="274.5" cy="101.136" rx="3.5" ry="4.04545" fill="#FFE200" fill-opacity="0.74"/>
<ellipse cx="274.5" cy="125.409" rx="3.5" ry="4.04545" fill="#FFE200" fill-opacity="0.74"/>
<ellipse cx="274.5" cy="149.682" rx="3.5" ry="4.04545" fill="#FFE200" fill-opacity="0.74"/>
<ellipse cx="274.5" cy="173.955" rx="3.5" ry="4.04545" fill="#FFE200" fill-opacity="0.74"/>
<ellipse cx="295.5" cy="4.04545" rx="3.5" ry="4.04545" fill="#FFE200" fill-opacity="0.74"/>
<ellipse cx="295.5" cy="28.3182" rx="3.5" ry="4.04545" fill="#FFE200" fill-opacity="0.74"/>
<ellipse cx="295.5" cy="52.5909" rx="3.5" ry="4.04545" fill="#FFE200" fill-opacity="0.74"/>
<ellipse cx="295.5" cy="76.8637" rx="3.5" ry="4.04545" fill="#FFE200" fill-opacity="0.74"/>
<ellipse cx="295.5" cy="101.136" rx="3.5" ry="4.04545" fill="#FFE200" fill-opacity="0.74"/>
<ellipse cx="295.5" cy="125.409" rx="3.5" ry="4.04545" fill="#FFE200" fill-opacity="0.74"/>
<ellipse cx="295.5" cy="149.682" rx="3.5" ry="4.04545" fill="#FFE200" fill-opacity="0.74"/>
<ellipse cx="295.5" cy="173.955" rx="3.5" ry="4.04545" fill="#FFE200" fill-opacity="0.74"/>
<ellipse cx="316.5" cy="4.04545" rx="3.5" ry="4.04545" fill="#FFE200" fill-opacity="0.74"/>
<ellipse cx="316.5" cy="28.3182" rx="3.5" ry="4.04545" fill="#FFE200" fill-opacity="0.74"/>
<ellipse cx="316.5" cy="52.5909" rx="3.5" ry="4.04545" fill="#FFE200" fill-opacity="0.74"/>
<ellipse cx="316.5" cy="76.8637" rx="3.5" ry="4.04545" fill="#FFE200" fill-opacity="0.74"/>
<ellipse cx="316.5" cy="101.136" rx="3.5" ry="4.04545" fill="#FFE200" fill-opacity="0.74"/>
<ellipse cx="316.5" cy="125.409" rx="3.5" ry="4.04545" fill="#FFE200" fill-opacity="0.74"/>
<ellipse cx="316.5" cy="149.682" rx="3.5" ry="4.04545" fill="#FFE200" fill-opacity="0.74"/>
<ellipse cx="316.5" cy="173.955" rx="3.5" ry="4.04545" fill="#FFE200" fill-opacity="0.74"/>
<ellipse cx="337.5" cy="4.04545" rx="3.5" ry="4.04545" fill="#FFE200" fill-opacity="0.74"/>
<ellipse cx="337.5" cy="28.3182" rx="3.5" ry="4.04545" fill="#FFE200" fill-opacity="0.74"/>
<ellipse cx="337.5" cy="52.5909" rx="3.5" ry="4.04545" fill="#FFE200" fill-opacity="0.74"/>
<ellipse cx="337.5" cy="76.8637" rx="3.5" ry="4.04545" fill="#FFE200" fill-opacity="0.74"/>
<ellipse cx="337.5" cy="101.136" rx="3.5" ry="4.04545" fill="#FFE200" fill-opacity="0.74"/>
<ellipse cx="337.5" cy="125.409" rx="3.5" ry="4.04545" fill="#FFE200" fill-opacity="0.74"/>
<ellipse cx="337.5" cy="149.682" rx="3.5" ry="4.04545" fill="#FFE200" fill-opacity="0.74"/>
<ellipse cx="337.5" cy="173.955" rx="3.5" ry="4.04545" fill="#FFE200" fill-opacity="0.74"/>
<ellipse cx="358.5" cy="4.04545" rx="3.5" ry="4.04545" fill="#FFE200" fill-opacity="0.74"/>
<ellipse cx="358.5" cy="28.3182" rx="3.5" ry="4.04545" fill="#FFE200" fill-opacity="0.74"/>
<ellipse cx="358.5" cy="52.5909" rx="3.5" ry="4.04545" fill="#FFE200" fill-opacity="0.74"/>
<ellipse cx="358.5" cy="76.8637" rx="3.5" ry="4.04545" fill="#FFE200" fill-opacity="0.74"/>
<ellipse cx="358.5" cy="101.136" rx="3.5" ry="4.04545" fill="#FFE200" fill-opacity="0.74"/>
<ellipse cx="358.5" cy="125.409" rx="3.5" ry="4.04545" fill="#FFE200" fill-opacity="0.74"/>
<ellipse cx="358.5" cy="149.682" rx="3.5" ry="4.04545" fill="#FFE200" fill-opacity="0.74"/>
<ellipse cx="358.5" cy="173.955" rx="3.5" ry="4.04545" fill="#FFE200" fill-opacity="0.74"/>
<ellipse cx="379.5" cy="4.04545" rx="3.5" ry="4.04545" fill="#FFE200" fill-opacity="0.74"/>
<ellipse cx="379.5" cy="28.3182" rx="3.5" ry="4.04545" fill="#FFE200" fill-opacity="0.74"/>
<ellipse cx="379.5" cy="52.5909" rx="3.5" ry="4.04545" fill="#FFE200" fill-opacity="0.74"/>
<ellipse cx="379.5" cy="76.8637" rx="3.5" ry="4.04545" fill="#FFE200" fill-opacity="0.74"/>
<ellipse cx="379.5" cy="101.136" rx="3.5" ry="4.04545" fill="#FFE200" fill-opacity="0.74"/>
<ellipse cx="379.5" cy="125.409" rx="3.5" ry="4.04545" fill="#FFE200" fill-opacity="0.74"/>
<ellipse cx="379.5" cy="149.682" rx="3.5" ry="4.04545" fill="#FFE200" fill-opacity="0.74"/>
<ellipse cx="379.5" cy="173.955" rx="3.5" ry="4.04545" fill="#FFE200" fill-opacity="0.74"/>
<ellipse cx="400.5" cy="4.04545" rx="3.5" ry="4.04545" fill="#FFE200" fill-opacity="0.74"/>
<ellipse cx="400.5" cy="28.3182" rx="3.5" ry="4.04545" fill="#FFE200" fill-opacity="0.74"/>
<ellipse cx="400.5" cy="52.5909" rx="3.5" ry="4.04545" fill="#FFE200" fill-opacity="0.74"/>
<ellipse cx="400.5" cy="76.8637" rx="3.5" ry="4.04545" fill="#FFE200" fill-opacity="0.74"/>
<ellipse cx="400.5" cy="101.136" rx="3.5" ry="4.04545" fill="#FFE200" fill-opacity="0.74"/>
<ellipse cx="400.5" cy="125.409" rx="3.5" ry="4.04545" fill="#FFE200" fill-opacity="0.74"/>
<ellipse cx="400.5" cy="149.682" rx="3.5" ry="4.04545" fill="#FFE200" fill-opacity="0.74"/>
<ellipse cx="400.5" cy="173.955" rx="3.5" ry="4.04545" fill="#FFE200" fill-opacity="0.74"/>
<ellipse cx="3.5" cy="4.04545" rx="3.5" ry="4.04545" fill="#FFE200" fill-opacity="0.74"/>
<ellipse cx="3.5" cy="28.3182" rx="3.5" ry="4.04545" fill="#FFE200" fill-opacity="0.74"/>
<ellipse cx="3.5" cy="52.5909" rx="3.5" ry="4.04545" fill="#FFE200" fill-opacity="0.74"/>
<ellipse cx="3.5" cy="76.8637" rx="3.5" ry="4.04545" fill="#FFE200" fill-opacity="0.74"/>
<ellipse cx="3.5" cy="101.136" rx="3.5" ry="4.04545" fill="#FFE200" fill-opacity="0.74"/>
<ellipse cx="3.5" cy="125.409" rx="3.5" ry="4.04545" fill="#FFE200" fill-opacity="0.74"/>
<ellipse cx="3.5" cy="149.682" rx="3.5" ry="4.04545" fill="#FFE200" fill-opacity="0.74"/>
<ellipse cx="3.5" cy="173.955" rx="3.5" ry="4.04545" fill="#FFE200" fill-opacity="0.74"/>
<ellipse cx="24.5" cy="4.04545" rx="3.5" ry="4.04545" fill="#FFE200" fill-opacity="0.74"/>
<ellipse cx="24.5" cy="28.3182" rx="3.5" ry="4.04545" fill="#FFE200" fill-opacity="0.74"/>
<ellipse cx="24.5" cy="52.5909" rx="3.5" ry="4.04545" fill="#FFE200" fill-opacity="0.74"/>
<ellipse cx="24.5" cy="76.8637" rx="3.5" ry="4.04545" fill="#FFE200" fill-opacity="0.74"/>
<ellipse cx="24.5" cy="101.136" rx="3.5" ry="4.04545" fill="#FFE200" fill-opacity="0.74"/>
<ellipse cx="24.5" cy="125.409" rx="3.5" ry="4.04545" fill="#FFE200" fill-opacity="0.74"/>
<ellipse cx="24.5" cy="149.682" rx="3.5" ry="4.04545" fill="#FFE200" fill-opacity="0.74"/>
<ellipse cx="24.5" cy="173.955" rx="3.5" ry="4.04545" fill="#FFE200" fill-opacity="0.74"/>
<ellipse cx="45.5" cy="4.04545" rx="3.5" ry="4.04545" fill="#FFE200" fill-opacity="0.74"/>
<ellipse cx="45.5" cy="28.3182" rx="3.5" ry="4.04545" fill="#FFE200" fill-opacity="0.74"/>
<ellipse cx="45.5" cy="52.5909" rx="3.5" ry="4.04545" fill="#FFE200" fill-opacity="0.74"/>
<ellipse cx="45.5" cy="76.8637" rx="3.5" ry="4.04545" fill="#FFE200" fill-opacity="0.74"/>
<ellipse cx="45.5" cy="101.136" rx="3.5" ry="4.04545" fill="#FFE200" fill-opacity="0.74"/>
<ellipse cx="45.5" cy="125.409" rx="3.5" ry="4.04545" fill="#FFE200" fill-opacity="0.74"/>
<ellipse cx="45.5" cy="149.682" rx="3.5" ry="4.04545" fill="#FFE200" fill-opacity="0.74"/>
<ellipse cx="45.5" cy="173.955" rx="3.5" ry="4.04545" fill="#FFE200" fill-opacity="0.74"/>
<ellipse cx="66.5" cy="4.04545" rx="3.5" ry="4.04545" fill="#FFE200" fill-opacity="0.74"/>
<ellipse cx="66.5" cy="28.3182" rx="3.5" ry="4.04545" fill="#FFE200" fill-opacity="0.74"/>
<ellipse cx="66.5" cy="52.5909" rx="3.5" ry="4.04545" fill="#FFE200" fill-opacity="0.74"/>
<ellipse cx="66.5" cy="76.8637" rx="3.5" ry="4.04545" fill="#FFE200" fill-opacity="0.74"/>
<ellipse cx="66.5" cy="101.136" rx="3.5" ry="4.04545" fill="#FFE200" fill-opacity="0.74"/>
<ellipse cx="66.5" cy="125.409" rx="3.5" ry="4.04545" fill="#FFE200" fill-opacity="0.74"/>
<ellipse cx="66.5" cy="149.682" rx="3.5" ry="4.04545" fill="#FFE200" fill-opacity="0.74"/>
<ellipse cx="66.5" cy="173.955" rx="3.5" ry="4.04545" fill="#FFE200" fill-opacity="0.74"/>
<ellipse cx="87.5" cy="4.04545" rx="3.5" ry="4.04545" fill="#FFE200" fill-opacity="0.74"/>
<ellipse cx="87.5" cy="28.3182" rx="3.5" ry="4.04545" fill="#FFE200" fill-opacity="0.74"/>
<ellipse cx="87.5" cy="52.5909" rx="3.5" ry="4.04545" fill="#FFE200" fill-opacity="0.74"/>
<ellipse cx="87.5" cy="76.8637" rx="3.5" ry="4.04545" fill="#FFE200" fill-opacity="0.74"/>
<ellipse cx="87.5" cy="101.136" rx="3.5" ry="4.04545" fill="#FFE200" fill-opacity="0.74"/>
<ellipse cx="87.5" cy="125.409" rx="3.5" ry="4.04545" fill="#FFE200" fill-opacity="0.74"/>
<ellipse cx="87.5" cy="149.682" rx="3.5" ry="4.04545" fill="#FFE200" fill-opacity="0.74"/>
<ellipse cx="87.5" cy="173.955" rx="3.5" ry="4.04545" fill="#FFE200" fill-opacity="0.74"/>
<ellipse cx="108.5" cy="4.04545" rx="3.5" ry="4.04545" fill="#FFE200" fill-opacity="0.74"/>
<ellipse cx="108.5" cy="28.3182" rx="3.5" ry="4.04545" fill="#FFE200" fill-opacity="0.74"/>
<ellipse cx="108.5" cy="52.5909" rx="3.5" ry="4.04545" fill="#FFE200" fill-opacity="0.74"/>
<ellipse cx="108.5" cy="76.8637" rx="3.5" ry="4.04545" fill="#FFE200" fill-opacity="0.74"/>
<ellipse cx="108.5" cy="101.136" rx="3.5" ry="4.04545" fill="#FFE200" fill-opacity="0.74"/>
<ellipse cx="108.5" cy="125.409" rx="3.5" ry="4.04545" fill="#FFE200" fill-opacity="0.74"/>
<ellipse cx="108.5" cy="149.682" rx="3.5" ry="4.04545" fill="#FFE200" fill-opacity="0.74"/>
<ellipse cx="108.5" cy="173.955" rx="3.5" ry="4.04545" fill="#FFE200" fill-opacity="0.74"/>
<ellipse cx="129.5" cy="4.04545" rx="3.5" ry="4.04545" fill="#FFE200" fill-opacity="0.74"/>
<ellipse cx="129.5" cy="28.3182" rx="3.5" ry="4.04545" fill="#FFE200" fill-opacity="0.74"/>
<ellipse cx="129.5" cy="52.5909" rx="3.5" ry="4.04545" fill="#FFE200" fill-opacity="0.74"/>
<ellipse cx="129.5" cy="76.8637" rx="3.5" ry="4.04545" fill="#FFE200" fill-opacity="0.74"/>
<ellipse cx="129.5" cy="101.136" rx="3.5" ry="4.04545" fill="#FFE200" fill-opacity="0.74"/>
<ellipse cx="129.5" cy="125.409" rx="3.5" ry="4.04545" fill="#FFE200" fill-opacity="0.74"/>
<ellipse cx="129.5" cy="149.682" rx="3.5" ry="4.04545" fill="#FFE200" fill-opacity="0.74"/>
<ellipse cx="129.5" cy="173.955" rx="3.5" ry="4.04545" fill="#FFE200" fill-opacity="0.74"/>
<ellipse cx="150.5" cy="4.04545" rx="3.5" ry="4.04545" fill="#FFE200" fill-opacity="0.74"/>
<ellipse cx="150.5" cy="28.3182" rx="3.5" ry="4.04545" fill="#FFE200" fill-opacity="0.74"/>
<ellipse cx="150.5" cy="52.5909" rx="3.5" ry="4.04545" fill="#FFE200" fill-opacity="0.74"/>
<ellipse cx="150.5" cy="76.8637" rx="3.5" ry="4.04545" fill="#FFE200" fill-opacity="0.74"/>
<ellipse cx="150.5" cy="101.136" rx="3.5" ry="4.04545" fill="#FFE200" fill-opacity="0.74"/>
<ellipse cx="150.5" cy="125.409" rx="3.5" ry="4.04545" fill="#FFE200" fill-opacity="0.74"/>
<ellipse cx="150.5" cy="149.682" rx="3.5" ry="4.04545" fill="#FFE200" fill-opacity="0.74"/>
<ellipse cx="150.5" cy="173.955" rx="3.5" ry="4.04545" fill="#FFE200" fill-opacity="0.74"/>
<ellipse cx="171.5" cy="4.04545" rx="3.5" ry="4.04545" fill="#FFE200" fill-opacity="0.74"/>
<ellipse cx="171.5" cy="28.3182" rx="3.5" ry="4.04545" fill="#FFE200" fill-opacity="0.74"/>
<ellipse cx="171.5" cy="52.5909" rx="3.5" ry="4.04545" fill="#FFE200" fill-opacity="0.74"/>
<ellipse cx="171.5" cy="76.8637" rx="3.5" ry="4.04545" fill="#FFE200" fill-opacity="0.74"/>
<ellipse cx="171.5" cy="101.136" rx="3.5" ry="4.04545" fill="#FFE200" fill-opacity="0.74"/>
<ellipse cx="171.5" cy="125.409" rx="3.5" ry="4.04545" fill="#FFE200" fill-opacity="0.74"/>
<ellipse cx="171.5" cy="149.682" rx="3.5" ry="4.04545" fill="#FFE200" fill-opacity="0.74"/>
<ellipse cx="171.5" cy="173.955" rx="3.5" ry="4.04545" fill="#FFE200" fill-opacity="0.74"/>
<ellipse cx="192.5" cy="4.04545" rx="3.5" ry="4.04545" fill="#FFE200" fill-opacity="0.74"/>
<ellipse cx="192.5" cy="28.3182" rx="3.5" ry="4.04545" fill="#FFE200" fill-opacity="0.74"/>
<ellipse cx="192.5" cy="52.5909" rx="3.5" ry="4.04545" fill="#FFE200" fill-opacity="0.74"/>
<ellipse cx="192.5" cy="76.8637" rx="3.5" ry="4.04545" fill="#FFE200" fill-opacity="0.74"/>
<ellipse cx="192.5" cy="101.136" rx="3.5" ry="4.04545" fill="#FFE200" fill-opacity="0.74"/>
<ellipse cx="192.5" cy="125.409" rx="3.5" ry="4.04545" fill="#FFE200" fill-opacity="0.74"/>
<ellipse cx="192.5" cy="149.682" rx="3.5" ry="4.04545" fill="#FFE200" fill-opacity="0.74"/>
<ellipse cx="192.5" cy="173.955" rx="3.5" ry="4.04545" fill="#FFE200" fill-opacity="0.74"/>
</svg>
